<svg width="134" height="42" viewBox="0 0 134 42" fill="none" xmlns="http://www.w3.org/2000/svg">
<rect x="18" y="18" width="116" height="24" rx="12" fill="#FADF7C"/>
<path d="M38.1616 29.596V30.112C38.1616 32.728 37.0456 34.108 34.6576 34.108C32.4016 34.108 30.8416 32.644 30.8416 29.8C30.8416 26.956 32.4016 25.492 34.5976 25.492C36.2176 25.492 37.4896 26.296 37.8256 27.748H36.5536C36.2296 27.028 35.6536 26.596 34.6216 26.596C33.1336 26.596 32.1616 27.7 32.1616 29.8C32.1616 31.876 33.1216 33.004 34.6576 33.004C36.1336 33.004 36.9496 32.26 37.0096 30.604H34.9816V29.596H38.1616ZM44.8968 30.988C44.8968 31.096 44.8968 31.192 44.8848 31.3H40.2528C40.3728 32.608 41.0688 33.16 42.1248 33.16C42.8568 33.16 43.2888 32.956 43.6008 32.476H44.6928C44.2368 33.592 43.3848 34.084 42.0528 34.084C40.5528 34.084 39.0888 33.112 39.0888 30.904C39.0888 28.66 40.5768 27.7 42.0528 27.7C43.5648 27.7 44.8968 28.66 44.8968 30.988ZM40.2528 30.508H43.7328C43.7088 29.296 43.0608 28.624 42.0528 28.624C41.0928 28.624 40.3728 29.236 40.2528 30.508ZM49.2879 27.7C50.5479 27.7 51.5079 28.336 51.5079 30.232V34H50.2959V30.28C50.2959 29.116 49.7199 28.72 48.8679 28.72C47.7879 28.72 47.2479 29.668 47.1399 30.196V34H45.9279V27.76H47.1399V29.152C47.2839 28.696 48.0039 27.7 49.2879 27.7ZM58.3616 30.988C58.3616 31.096 58.3616 31.192 58.3496 31.3H53.7176C53.8376 32.608 54.5336 33.16 55.5896 33.16C56.3216 33.16 56.7536 32.956 57.0656 32.476H58.1576C57.7016 33.592 56.8496 34.084 55.5176 34.084C54.0176 34.084 52.5536 33.112 52.5536 30.904C52.5536 28.66 54.0416 27.7 55.5176 27.7C57.0296 27.7 58.3616 28.66 58.3616 30.988ZM53.7176 30.508H57.1976C57.1736 29.296 56.5256 28.624 55.5176 28.624C54.5576 28.624 53.8376 29.236 53.7176 30.508ZM62.6567 27.7C62.7887 27.7 62.9327 27.7 63.1247 27.736V28.804C62.9327 28.792 62.8247 28.792 62.7407 28.792C61.4567 28.792 60.7847 29.44 60.6047 30.46V34H59.3927V27.76H60.6047V29.236C60.7967 28.396 61.4927 27.7 62.6567 27.7ZM68.8764 32.752C68.8764 33.1 69.0084 33.244 69.3324 33.244V33.964C69.1764 34.036 69.0444 34.048 68.8644 34.048C68.2164 34.048 67.7724 33.784 67.7724 33.124V32.812C67.6404 33.088 67.0044 34.084 65.5044 34.084C64.3644 34.084 63.4404 33.484 63.4404 32.212C63.4404 31 64.3164 30.58 65.6724 30.364C66.3924 30.244 67.2564 30.148 67.6644 29.92V29.86C67.6644 28.864 67.1244 28.612 66.3204 28.612C65.5164 28.612 65.0604 28.888 64.9644 29.464H63.8124C63.9324 28.3 64.8204 27.7 66.3324 27.7C68.0844 27.7 68.8764 28.384 68.8764 30.148V32.752ZM67.6644 32.02V30.676C67.2804 30.868 66.5844 30.976 65.8404 31.108C64.9524 31.276 64.6524 31.588 64.6524 32.164C64.6524 32.764 65.0484 33.196 65.8044 33.196C66.9444 33.196 67.5084 32.308 67.6644 32.02ZM70.256 25.528H71.468V34H70.256V25.528ZM79.2005 25.6C81.2645 25.6 82.2725 26.68 82.2725 28.384C82.2725 30.064 81.2645 31.144 79.2005 31.144H77.3285V34H76.0685V25.6H79.2005ZM79.2005 30.04C80.3405 30.04 80.9285 29.44 80.9285 28.384C80.9285 27.316 80.3405 26.704 79.2005 26.704H77.3285V30.04H79.2005ZM88.0834 32.752C88.0834 33.1 88.2154 33.244 88.5394 33.244V33.964C88.3834 34.036 88.2514 34.048 88.0714 34.048C87.4234 34.048 86.9794 33.784 86.9794 33.124V32.812C86.8474 33.088 86.2114 34.084 84.7114 34.084C83.5714 34.084 82.6474 33.484 82.6474 32.212C82.6474 31 83.5234 30.58 84.8794 30.364C85.5994 30.244 86.4634 30.148 86.8714 29.92V29.86C86.8714 28.864 86.3314 28.612 85.5274 28.612C84.7234 28.612 84.2674 28.888 84.1714 29.464H83.0194C83.1394 28.3 84.0274 27.7 85.5394 27.7C87.2914 27.7 88.0834 28.384 88.0834 30.148V32.752ZM86.8714 32.02V30.676C86.4874 30.868 85.7914 30.976 85.0474 31.108C84.1594 31.276 83.8594 31.588 83.8594 32.164C83.8594 32.764 84.2554 33.196 85.0114 33.196C86.1514 33.196 86.7154 32.308 86.8714 32.02ZM92.7856 27.7C92.9176 27.7 93.0616 27.7 93.2536 27.736V28.804C93.0616 28.792 92.9536 28.792 92.8696 28.792C91.5856 28.792 90.9136 29.44 90.7336 30.46V34H89.5216V27.76H90.7336V29.236C90.9256 28.396 91.6216 27.7 92.7856 27.7ZM96.7017 33.112C96.9057 33.112 97.1097 33.088 97.3737 33.016V33.916C97.1097 34.012 96.7497 34.072 96.3537 34.072C95.5137 34.072 94.8537 33.82 94.8537 32.68V28.72H93.8697V27.76H94.8537V26.2H96.0657V27.76H97.2897V28.72H96.0657V32.548C96.0657 32.896 96.2217 33.112 96.7017 33.112ZM101.776 27.7C103.036 27.7 103.996 28.336 103.996 30.232V34H102.784V30.28C102.784 29.116 102.208 28.72 101.356 28.72C100.276 28.72 99.7361 29.668 99.6281 30.196V34H98.4161V27.76H99.6281V29.152C99.7721 28.696 100.492 27.7 101.776 27.7ZM110.85 30.988C110.85 31.096 110.85 31.192 110.838 31.3H106.206C106.326 32.608 107.022 33.16 108.078 33.16C108.81 33.16 109.242 32.956 109.554 32.476H110.646C110.19 33.592 109.338 34.084 108.006 34.084C106.506 34.084 105.042 33.112 105.042 30.904C105.042 28.66 106.53 27.7 108.006 27.7C109.518 27.7 110.85 28.66 110.85 30.988ZM106.206 30.508H109.686C109.662 29.296 109.014 28.624 108.006 28.624C107.046 28.624 106.326 29.236 106.206 30.508ZM115.145 27.7C115.277 27.7 115.421 27.7 115.613 27.736V28.804C115.421 28.792 115.313 28.792 115.229 28.792C113.945 28.792 113.273 29.44 113.093 30.46V34H111.881V27.76H113.093V29.236C113.285 28.396 113.981 27.7 115.145 27.7ZM120.099 29.464C119.907 28.864 119.427 28.624 118.707 28.624C117.915 28.624 117.459 28.972 117.459 29.488C117.459 29.932 117.747 30.172 118.395 30.328L119.439 30.568C120.591 30.832 121.335 31.048 121.335 32.236C121.335 33.532 120.147 34.084 118.743 34.084C117.291 34.084 116.271 33.46 116.103 32.128H117.231C117.387 32.884 117.987 33.16 118.755 33.16C119.547 33.16 120.123 32.848 120.123 32.236C120.123 31.696 119.775 31.54 119.163 31.396L118.095 31.156C116.859 30.868 116.319 30.316 116.319 29.452C116.319 28.36 117.243 27.7 118.695 27.7C120.111 27.7 120.963 28.348 121.203 29.464H120.099Z" fill="black"/>
<g clip-path="url(#clip0_247_9)">
<path d="M17.6827 7.4068L0.737498 0.0436905C0.53883 -0.0426179 0.307643 0.00132729 0.154468 0.154468C0.00132729 0.307643 -0.0426179 0.538901 0.0436905 0.737533L7.4068 17.6828C7.49082 17.8762 7.68137 18 7.8903 18C7.90025 18 7.91027 17.9997 7.92022 17.9991C8.14076 17.9867 8.33014 17.8381 8.39472 17.6269L9.97366 12.4643C10.3389 11.27 11.27 10.339 12.4643 9.9737L17.6268 8.39476C17.838 8.33014 17.9866 8.14076 17.9991 7.92026C18.0116 7.69976 17.8853 7.49483 17.6827 7.4068Z" fill="#FADF7C"/>
</g>
<defs>
<clipPath id="clip0_247_9">
<rect width="18" height="18" fill="white"/>
</clipPath>
</defs>
</svg>
