<svg width="147" height="42" viewBox="0 0 147 42" fill="none" xmlns="http://www.w3.org/2000/svg">
<rect y="18" width="111" height="24" rx="12" fill="#F0927E"/>
<path d="M22.4934 25.6V26.704H19.9254V34H18.6534V26.704H16.0854V25.6H22.4934ZM27.7894 30.988C27.7894 31.096 27.7894 31.192 27.7774 31.3H23.1454C23.2654 32.608 23.9614 33.16 25.0174 33.16C25.7494 33.16 26.1814 32.956 26.4934 32.476H27.5854C27.1294 33.592 26.2774 34.084 24.9454 34.084C23.4454 34.084 21.9814 33.112 21.9814 30.904C21.9814 28.66 23.4694 27.7 24.9454 27.7C26.4574 27.7 27.7894 28.66 27.7894 30.988ZM23.1454 30.508H26.6254C26.6014 29.296 25.9534 28.624 24.9454 28.624C23.9854 28.624 23.2654 29.236 23.1454 30.508ZM31.555 33.088C32.407 33.088 32.863 32.704 33.091 32.008H34.195C33.859 33.616 32.671 34.084 31.543 34.084C30.115 34.084 28.579 33.172 28.579 30.892C28.579 28.624 30.103 27.7 31.531 27.7C32.659 27.7 33.799 28.168 34.147 29.728H33.031C32.815 29.068 32.371 28.696 31.543 28.696C30.547 28.696 29.743 29.416 29.743 30.892C29.743 32.392 30.559 33.088 31.555 33.088ZM38.5906 27.7C39.8506 27.7 40.8106 28.336 40.8106 30.232V34H39.5986V30.28C39.5986 29.116 39.0226 28.72 38.1706 28.72C37.0906 28.72 36.5506 29.668 36.4426 30.196V34H35.2306V25.528H36.4426V29.152C36.5866 28.696 37.3066 27.7 38.5906 27.7ZM50.8142 26.704H46.6742V29.308H50.0822V30.34H46.6742V34H45.4142V25.6H50.8142V26.704ZM54.1485 27.7C55.4925 27.7 57.1005 28.648 57.1005 30.892C57.1005 33.136 55.4925 34.084 54.1485 34.084C52.7925 34.084 51.1845 33.136 51.1845 30.892C51.1845 28.648 52.7925 27.7 54.1485 27.7ZM55.9365 30.892C55.9365 29.368 55.0725 28.696 54.1485 28.696C53.2245 28.696 52.3485 29.368 52.3485 30.892C52.3485 32.416 53.2245 33.088 54.1485 33.088C55.0725 33.088 55.9365 32.416 55.9365 30.892ZM62.4488 27.76H63.6608V34H62.4488V32.62C62.3048 33.076 61.5848 34.084 60.3008 34.084C59.0408 34.084 58.0808 33.436 58.0808 31.54V27.76H59.2928V31.492C59.2928 32.656 59.8688 33.064 60.7208 33.064C61.8008 33.064 62.3408 32.104 62.4488 31.576V27.76ZM68.3679 27.7C69.6279 27.7 70.5879 28.336 70.5879 30.232V34H69.3759V30.28C69.3759 29.116 68.7999 28.72 67.9479 28.72C66.8679 28.72 66.3279 29.668 66.2199 30.196V34H65.0079V27.76H66.2199V29.152C66.3639 28.696 67.0839 27.7 68.3679 27.7ZM74.3937 27.7C75.3057 27.7 76.0377 28.18 76.3617 28.804V25.528H77.5737V34H76.3617V32.836C76.1577 33.376 75.5217 34.084 74.4177 34.084C73.1217 34.084 71.6337 33.148 71.6337 30.88C71.6337 28.648 73.1337 27.7 74.3937 27.7ZM74.6217 33.088C75.5697 33.088 76.4217 32.38 76.4217 30.88C76.4217 29.368 75.5697 28.696 74.6217 28.696C73.6497 28.696 72.8097 29.356 72.8097 30.88C72.8097 32.416 73.6497 33.088 74.6217 33.088ZM84.4261 30.988C84.4261 31.096 84.4261 31.192 84.4141 31.3H79.7821C79.9021 32.608 80.5981 33.16 81.6541 33.16C82.3861 33.16 82.8181 32.956 83.1301 32.476H84.2221C83.7661 33.592 82.9141 34.084 81.5821 34.084C80.0821 34.084 78.6181 33.112 78.6181 30.904C78.6181 28.66 80.1061 27.7 81.5821 27.7C83.0941 27.7 84.4261 28.66 84.4261 30.988ZM79.7821 30.508H83.2621C83.2381 29.296 82.5901 28.624 81.5821 28.624C80.6221 28.624 79.9021 29.236 79.7821 30.508ZM88.7212 27.7C88.8532 27.7 88.9972 27.7 89.1892 27.736V28.804C88.9972 28.792 88.8892 28.792 88.8052 28.792C87.5212 28.792 86.8492 29.44 86.6692 30.46V34H85.4572V27.76H86.6692V29.236C86.8612 28.396 87.5572 27.7 88.7212 27.7ZM93.6752 29.464C93.4832 28.864 93.0032 28.624 92.2832 28.624C91.4912 28.624 91.0352 28.972 91.0352 29.488C91.0352 29.932 91.3232 30.172 91.9712 30.328L93.0152 30.568C94.1672 30.832 94.9112 31.048 94.9112 32.236C94.9112 33.532 93.7232 34.084 92.3192 34.084C90.8672 34.084 89.8472 33.46 89.6792 32.128H90.8072C90.9632 32.884 91.5632 33.16 92.3312 33.16C93.1232 33.16 93.6992 32.848 93.6992 32.236C93.6992 31.696 93.3512 31.54 92.7392 31.396L91.6712 31.156C90.4352 30.868 89.8952 30.316 89.8952 29.452C89.8952 28.36 90.8192 27.7 92.2712 27.7C93.6872 27.7 94.5392 28.348 94.7792 29.464H93.6752Z" fill="black"/>
<g clip-path="url(#clip0_247_8)">
<path d="M129.317 7.4068L146.263 0.0436905C146.461 -0.0426179 146.692 0.00132729 146.846 0.154468C146.999 0.307643 147.043 0.538901 146.956 0.737533L139.593 17.6828C139.509 17.8762 139.319 18 139.11 18C139.1 18 139.09 17.9997 139.08 17.9992C138.859 17.9867 138.67 17.8381 138.605 17.6269L137.026 12.4643C136.661 11.27 135.73 10.339 134.536 9.9737L129.373 8.39476C129.162 8.33014 129.013 8.14076 129.001 7.92026C128.988 7.69976 129.115 7.49483 129.317 7.4068Z" fill="#F0927E"/>
</g>
<defs>
<clipPath id="clip0_247_8">
<rect width="18" height="18" fill="white" transform="matrix(-1 0 0 1 147 0)"/>
</clipPath>
</defs>
</svg>
